<svg width="32" height="32" viewBox="0 0 32 32" fill="none" xmlns="http://www.w3.org/2000/svg">
<path d="M9.71499 16.651L16 10.456L22.285 16.652C22.679 17.043 23.319 17.043 23.713 16.652C24.107 16.261 24.107 15.628 23.713 15.238L16.714 8.339C16.335 7.964 15.666 7.962 15.285 8.339L8.28599 15.239C7.89199 15.629 7.89199 16.263 8.28599 16.653C8.68099 17.042 9.32099 17.042 9.71499 16.651Z" fill="#15C435"/>
<path d="M16.714 15.338C16.335 14.963 15.666 14.961 15.285 15.338L8.28599 22.237C7.89199 22.628 7.89199 23.261 8.28599 23.651C8.67999 24.042 9.31999 24.042 9.71399 23.651L16 17.456L22.285 23.652C22.679 24.043 23.319 24.043 23.713 23.652C24.107 23.261 24.107 22.628 23.713 22.238L16.714 15.338Z" fill="#15C435"/>
</svg>
