<svg width="76" height="20" fill="none" xmlns="http://www.w3.org/2000/svg"><g clip-path="url(#clip0_118_743)"><path d="M35.794 13.686a1.864 1.864 0 011.287.529l-.372.479-.1-.082a1.457 1.457 0 00-.322-.183 1.2 1.2 0 00-.483-.102c-.2 0-.362.041-.482.133a.437.437 0 00-.181.366c0 .082.02.153.05.214.04.061.08.112.15.153a1.947 1.947 0 00.463.224l.573.234.12.051c.081.04.151.082.222.122.1.072.19.153.261.234.07.092.13.194.17.316.041.122.061.255.061.407 0 .173-.03.336-.1.49a1.15 1.15 0 01-.302.396c-.13.112-.291.204-.472.275l-.11.04c-.081.021-.161.042-.242.052h-.03l-.15.336.09.02c.11.04.2.082.271.143.08.071.12.173.12.305 0 .204-.1.357-.3.458-.202.102-.483.153-.855.174l-.06-.326h.11c.201-.03.342-.051.422-.092a.22.22 0 00.14-.214.217.217 0 00-.1-.183l-.04-.02c-.07-.041-.19-.062-.352-.082l.252-.52h-.12a2.751 2.751 0 01-.483-.152 2.293 2.293 0 01-.694-.458l.432-.51.121.102c.12.092.251.174.392.245.19.092.382.132.573.132.241 0 .422-.05.543-.152a.495.495 0 00.18-.398.525.525 0 00-.05-.224.477.477 0 00-.13-.152c-.06-.041-.121-.092-.202-.123-.08-.04-.16-.08-.26-.111l-.574-.255-.1-.051c-.07-.03-.13-.071-.201-.112a1.189 1.189 0 01-.272-.234.913.913 0 01-.19-.316 1.067 1.067 0 01-.07-.417c0-.173.03-.326.1-.469.07-.142.17-.275.291-.376.12-.112.271-.194.442-.255.171-.061.362-.092.563-.092v.031zm-13.778-.255v3.85c.01.06.03.101.05.132.03.04.07.05.11.05h.061s.03 0 .05-.01l.09.56-.06.02c-.09.031-.2.041-.32.041-.262 0-.453-.081-.554-.234-.11-.163-.16-.376-.16-.651v-3.747h.733v-.01zm2.17 1.314c.212 0 .403.04.564.112.16.071.301.173.402.305.11.133.19.296.24.479.051.183.081.387.081.61v.204c0 .062-.01.113-.02.153h-1.99l.02.122a.96.96 0 00.282.54c.16.153.372.234.623.234.14 0 .261-.02.382-.06.12-.041.23-.103.352-.174l.25.468-.11.072a2.2 2.2 0 01-.382.173 1.78 1.78 0 01-.572.091 1.62 1.62 0 01-.604-.112 1.35 1.35 0 01-.492-.325 1.528 1.528 0 01-.332-.52 1.904 1.904 0 01-.12-.702c0-.265.04-.489.12-.703.08-.203.191-.377.322-.52.13-.142.291-.254.462-.325.171-.081.352-.112.533-.112l-.01-.01zm-3.768.081v3.177h-.743v-3.177h.743zm7.708-1.048v1.924h.02l1.488-1.924h.824l-1.286 1.65 1.497 2.575h-.814l-1.126-1.995-.603.753v1.232h-.743v-4.226h.743v.01zm5.518 0v.63h-1.77v1.08h1.498v.631h-1.497v1.253h1.839v.631H31.14v-4.225h2.513-.01zm6.783 0v.63h-1.779V15.6h1.518v.632h-1.518v1.761h-.744v-4.226h2.523v.01zm3.176 0v.63h-1.77v1.08h1.498v.631h-1.497v1.253h1.839v.631H41.09v-4.225h2.513zm1.97 0h.16c.563.03 1.005.203 1.337.519.361.346.532.876.532 1.568 0 .346-.05.662-.14.926-.09.265-.221.49-.392.673a1.634 1.634 0 01-.623.407 2.354 2.354 0 01-.834.132h-1.156v-4.225h1.115zm3.547 0v4.225h-.744v-4.225h.744zm1.748 0l1.297 2.382.422.896h.03l-.02-.224c-.01-.152-.03-.315-.04-.478a9.323 9.323 0 01-.03-.733v-1.833h.703v4.225h-.764l-1.296-2.382-.432-.896h-.03l.02.224c.01.152.03.315.04.478.02.245.03.489.03.723v1.853h-.703v-4.225h.763l.01-.01zm-5.346.61H45.2v3.014h.322c.422 0 .754-.122.975-.366.231-.245.342-.631.342-1.15 0-.52-.11-.897-.342-1.13-.231-.235-.553-.357-.975-.357v-.01zm-21.315.947a.696.696 0 00-.492.204c-.141.133-.232.326-.262.59h1.387c0-.244-.05-.437-.16-.58-.101-.142-.262-.213-.483-.213h.01zm-4.16-1.924a.43.43 0 01.451.428.39.39 0 01-.13.305.437.437 0 01-.322.122.437.437 0 01-.321-.122.409.409 0 01-.13-.305c0-.133.04-.224.13-.306a.437.437 0 01.321-.122zm28.691-.845c.13 0 .241.04.322.112.08.081.13.183.13.305a.39.39 0 01-.13.306.437.437 0 01-.322.122.437.437 0 01-.322-.122.426.426 0 01-.13-.306.39.39 0 01.13-.305c.08-.082.191-.112.322-.112zm22.48-9.429l1.026 2.953.09.265c.06.183.11.366.171.56.08.285.171.58.261.865h.05l.111-.417.11-.428c.081-.285.152-.57.222-.835l.894-2.953H75.5L73.35 9.43l-.071.203c-.1.265-.211.5-.322.713-.14.265-.311.5-.502.693a1.901 1.901 0 01-.653.437 2.21 2.21 0 01-.855.153c-.16 0-.3-.01-.422-.03-.12-.02-.24-.051-.351-.092l.251-1.1.06.02.141.041c.08.02.15.03.221.03.312 0 .563-.09.754-.284.19-.194.331-.438.432-.743l.11-.377-2.331-5.936h1.417l-.01-.02zm-40.83-.142c.371 0 .703.07.984.213.282.143.533.347.734.622.2.264.352.59.462.967.1.377.161.794.161 1.262 0 .52-.07.978-.211 1.375-.14.397-.332.743-.563 1.018a2.328 2.328 0 01-.814.632 2.228 2.228 0 01-.954.224c-.262 0-.513-.061-.774-.173a2.808 2.808 0 01-.754-.49l.04 1.009v1.883h-1.387v-8.4h1.146l.1.642h.05l.151-.123a3.98 3.98 0 01.684-.427 2.1 2.1 0 01.954-.234h-.01zm6.612 0c.372 0 .703.07.985.213.281.143.533.347.734.622.2.264.351.59.462.967.1.377.16.794.16 1.262 0 .52-.07.978-.21 1.375a3.294 3.294 0 01-.563 1.018 2.327 2.327 0 01-.814.632 2.228 2.228 0 01-.955.224c-.261 0-.512-.061-.774-.173a2.807 2.807 0 01-.753-.49l.04 1.009v1.883h-1.387v-8.4h1.146l.1.642h.05l.151-.123c.211-.162.432-.305.683-.427a2.1 2.1 0 01.955-.234H37zm25.456 0c.402 0 .753.07 1.065.203.311.133.563.336.764.59.2.255.362.56.462.907.1.346.16.733.16 1.15 0 .143 0 .265-.02.388-.01.122-.03.224-.04.295H61.08l.02.163c.08.458.261.825.543 1.09.311.284.703.437 1.185.437.262 0 .503-.04.724-.112a3.33 3.33 0 00.663-.326l.473.886-.171.112a4.177 4.177 0 01-.774.357 3.241 3.241 0 01-1.085.183c-.412 0-.794-.071-1.146-.214a2.742 2.742 0 01-.935-.621 2.891 2.891 0 01-.623-.988c-.15-.387-.22-.835-.22-1.324 0-.488.08-.926.23-1.323a2.87 2.87 0 01.613-.988 2.65 2.65 0 01.875-.621 2.573 2.573 0 011.015-.224l-.01-.02zM58.426.51v7.25c.01.132.04.224.1.275a.26.26 0 00.201.102h.12s.061-.01.091-.02l.181 1.048-.1.04c-.171.062-.382.082-.643.082-.503 0-.855-.152-1.056-.458-.2-.305-.301-.713-.301-1.232V.5h1.387l.02.01zm-3.075 0v7.25c.01.132.04.224.1.275a.26.26 0 00.201.102h.12s.061-.01.091-.02l.181 1.048-.1.04c-.171.062-.382.082-.644.082-.502 0-.854-.152-1.055-.458-.2-.305-.301-.713-.301-1.232V.5h1.386l.02.01zm-5.065 2.485c.743 0 1.296.224 1.658.672.362.448.552 1.09.552 1.924v3.564h-1.145l-.1-.662h-.05l-.162.132a5.043 5.043 0 01-.693.448 2.162 2.162 0 01-.985.235c-.522 0-.945-.163-1.266-.49-.322-.325-.483-.753-.483-1.282 0-.316.07-.6.201-.855.131-.245.342-.469.633-.642.282-.183.654-.326 1.086-.458.442-.122.965-.214 1.578-.285 0-.153-.03-.306-.07-.448a1.168 1.168 0 00-.182-.377.77.77 0 00-.331-.254 1.25 1.25 0 00-.513-.092c-.291 0-.573.061-.854.173a5.133 5.133 0 00-.814.417l-.512-.947.2-.122c.282-.163.583-.305.905-.427a3.788 3.788 0 011.327-.235l.02.01zM43.984.989c.563 0 1.046.102 1.438.315.392.204.713.448.964.703l-.753.916-.12-.112a4.065 4.065 0 00-.544-.387c-.24-.132-.552-.203-.924-.203s-.674.071-.965.203a2.03 2.03 0 00-.734.58c-.2.245-.361.55-.472.917-.11.357-.17.764-.17 1.212 0 .916.2 1.63.612 2.148.402.52 1.005.774 1.81.774.22 0 .441-.03.642-.091.201-.062.362-.153.493-.265V5.968h-1.498v-1.16h2.754V8.33l-.12.112a3.487 3.487 0 01-.935.57 3.772 3.772 0 01-1.467.275 4.06 4.06 0 01-1.478-.264 3.393 3.393 0 01-1.186-.795 3.757 3.757 0 01-.783-1.293 5.3 5.3 0 01-.282-1.761c0-.662.1-1.243.292-1.762.19-.52.462-.957.794-1.313a3.472 3.472 0 011.185-.825 3.887 3.887 0 011.468-.285h-.02zm-19.908.152l2.573 8.014h-1.477l-.613-2.169h-2.653l-.613 2.169h-1.438l2.583-8.014h1.648-.01zm44.932 1.854c.281 0 .513.04.673.122l-.24 1.222-.101-.03a1.61 1.61 0 00-.191-.042c-.09-.02-.201-.02-.322-.02-.231 0-.482.092-.733.275-.262.183-.483.51-.664.957v3.676h-1.387V3.137h1.146l.1 1.07h.05l.091-.164a2.26 2.26 0 01.673-.733c.302-.203.604-.315.915-.315h-.01zM51.1 6.192l-.201.03a4.9 4.9 0 00-.824.173 2.985 2.985 0 00-.664.275.926.926 0 00-.361.347.863.863 0 00-.111.417c0 .265.08.468.241.59.161.123.362.184.613.184s.462-.061.663-.173a3.14 3.14 0 00.634-.489V6.202l.01-.01zM36.608 4.155c-.422 0-.854.224-1.306.672v2.8l.13.102c.171.133.342.224.503.285.2.072.392.112.573.112.392 0 .723-.173.995-.519.26-.346.401-.865.401-1.548 0-.6-.1-1.069-.3-1.405-.202-.336-.534-.499-.976-.499h-.02zm-6.612 0c-.423 0-.855.224-1.307.672v2.8l.13.102c.172.133.342.224.503.285.201.072.392.112.573.112.392 0 .724-.173.995-.519.261-.346.402-.865.402-1.548 0-.6-.1-1.069-.302-1.405-.2-.336-.532-.499-.974-.499h-.02zm-6.744-1.914h-.05l-.17.672-.172.672c-.11.448-.23.876-.361 1.304l-.282.977h2.02l-.281-.977-.13-.428c-.081-.285-.162-.58-.242-.886-.12-.448-.231-.896-.342-1.334h.01zm39.244 1.833c-.352 0-.663.122-.935.377-.261.254-.432.62-.492 1.11h2.633c0-.469-.1-.835-.292-1.1-.2-.265-.502-.397-.914-.397v.01z" fill="#fff"/></g><path d="M11.332 2.537h-6.59C1.633 2.537.5 3.764.5 7.14v7.155C.5 17.67 1.638 18.9 4.742 18.9h6.59c3.103 0 4.242-1.236 4.242-4.605V7.14c0-3.376-1.132-4.604-4.242-4.604z" fill="#C8102E"/><path fill-rule="evenodd" clip-rule="evenodd" d="M6.809 14.054l-.202.442H6.16l.955-2.146H7.5l.955 2.146h-.461l-.195-.442h-.99zm.159-.388h.667L7.3 12.9l-.332.765zm7.089-1.311h.44V14.5h-.44v-2.146zm-1.732 1.753h1.211v.388h-1.642V12.35h1.598v.395H12.33v.435h.803v.395h-.803l-.005.533zm-1.25-1.753h.46L10.78 14.5h-.373l-.496-1.41-.495 1.41h-.363l-.762-2.146h.476l.482 1.476.489-1.476h.363l.495 1.476.478-1.476zm-5.583 0h.441v1.213a.851.851 0 01-.238.704.878.878 0 01-.706.262.883.883 0 01-.693-.262.857.857 0 01-.237-.693v-1.224H4.5v1.213c0 .362.175.553.496.553s.495-.192.495-.537l.001-1.23zm-2.487 0h.441V14.5h-.44v-.877h-.988v.877h-.441v-2.146h.44v.858h.997l-.009-.858zm5.028-2.727a2.79 2.79 0 01-1.957-.8A2.707 2.707 0 015.265 6.9h.386a2.33 2.33 0 00.715 1.627 2.4 2.4 0 001.666.67 2.4 2.4 0 001.666-.67 2.33 2.33 0 00.715-1.627h.387a2.712 2.712 0 01-.811 1.926c-.519.511-1.22.8-1.954.802h-.002z" fill="#fff"/><defs><clipPath id="clip0_118_743"><path fill="#fff" transform="translate(19.594 .5)" d="M0 0h55.906v19H0z"/></clipPath></defs></svg>