<svg width="80" height="14" fill="none" xmlns="http://www.w3.org/2000/svg"><path d="M22.939 10.24v3.715h-.519v-.423h-.043a.957.957 0 01-.86.467c-.697 0-1.139-.535-1.139-1.381 0-.845.446-1.38 1.139-1.38a.907.907 0 01.84.47h.04v-1.469h.542zm8.009 1.265a.855.855 0 01.23.72v1.73h-.542v-1.598c0-.43-.191-.643-.59-.643a.636.636 0 00-.488.192.603.603 0 00-.167.486v1.563h-.542v-2.673h.521v.425h.04a.823.823 0 01.819-.476.9.9 0 01.719.274zm-14.52-1.092v3.542h-.564v-3.541h.564zm3.021 1.092a.856.856 0 01.23.72v1.73h-.542v-1.598c0-.43-.191-.643-.59-.643a.635.635 0 00-.488.192.604.604 0 00-.168.486v1.563h-.54v-2.673h.52v.425h.04a.823.823 0 01.819-.476c.27-.02.535.08.719.274zm8.528-.223v2.673h-.539v-2.673h.539zm-3.602 0v2.673h-.54v-2.673h.54zm2.174-.044c.08-.001.162.006.24.022v.52c-.098-.02-.2-.03-.301-.031a.655.655 0 00-.493.162.623.623 0 00-.207.466v1.579h-.54v-2.674h.52v.41h.04a.745.745 0 01.74-.454zm-4.879.474c-.455 0-.732.344-.732.906 0 .567.274.908.732.908.456 0 .738-.346.738-.906 0-.558-.285-.908-.738-.908zM8.164 3.242l.168.011a3.228 3.228 0 012.526 1.332 3.038 3.038 0 00-1.491 2.562 2.951 2.951 0 001.847 2.716 6.678 6.678 0 01-.961 1.909c-.566.825-1.16 1.632-2.102 1.647-.915.02-1.223-.525-2.273-.525-1.059 0-1.388.51-2.265.546-.898.032-1.583-.882-2.17-1.7C.27 10.07-.643 7.032.581 4.966a3.376 3.376 0 012.831-1.684c.899-.018 1.733.591 2.285.591.541 0 1.572-.728 2.635-.62l-.168-.01zm16.181 6.98a.335.335 0 01.085.376.348.348 0 01-.325.215.333.333 0 01-.245-.088.319.319 0 01-.104-.233.34.34 0 01.2-.33.359.359 0 01.39.061zm3.603 0a.335.335 0 01.085.376.348.348 0 01-.325.215.334.334 0 01-.246-.088.32.32 0 01-.104-.233.34.34 0 01.2-.33.358.358 0 01.39.061zM16.15 9.428c.185.002.334.15.332.33a.333.333 0 01-.337.327.34.34 0 01-.242-.098.323.323 0 01-.096-.238.334.334 0 01.342-.321h.001zm9.256-7.273c1.399 0 2.32 1.078 2.32 2.743 0 1.67-.916 2.743-2.299 2.743a1.879 1.879 0 01-1.734-.94h-.026v2.662h-1.131V2.21h1.095v.894h.02a1.963 1.963 0 011.755-.95zm6.066 0c1.398 0 2.32 1.078 2.32 2.743 0 1.67-.916 2.743-2.3 2.743a1.879 1.879 0 01-1.733-.94h-.027v2.662h-1.13V2.21h1.094v.894h.021a1.962 1.962 0 011.755-.95zm8.12-2.063c1.598 0 2.693.874 2.73 2.145H41.18c-.069-.736-.692-1.18-1.604-1.18-.911 0-1.534.45-1.534 1.104 0 .521.398.827 1.372 1.062l.833.2c1.551.357 2.195.965 2.195 2.043 0 1.379-1.126 2.242-2.918 2.242-1.676 0-2.808-.843-2.881-2.176h1.158c.084.73.812 1.21 1.807 1.21.954 0 1.64-.48 1.64-1.138 0-.572-.414-.915-1.394-1.15l-.98-.23c-1.387-.326-2.032-.96-2.032-1.987 0-1.271 1.136-2.145 2.75-2.145zm32.319 2.053c1.314 0 2.184.7 2.184 1.757v3.684h-1.084V6.7h-.027c-.353.61-1.02.985-1.739.976a1.698 1.698 0 01-1.284-.414 1.61 1.61 0 01-.549-1.205c0-.94.738-1.508 2.048-1.584l1.509-.082v-.409c0-.597-.403-.935-1.09-.935a1.053 1.053 0 00-1.158.757h-1.058c.032-.97.959-1.66 2.248-1.66zm-22.76 0c1.599 0 2.616 1.063 2.616 2.755 0 1.695-1.011 2.752-2.615 2.752-1.602 0-2.614-1.057-2.614-2.753 0-1.69 1.022-2.754 2.614-2.754zm9.161 0c1.525 0 2.484 1.022 2.484 2.651v.378h-3.893v.067c-.036.4.106.796.39 1.087.283.291.682.45 1.093.435a1.25 1.25 0 001.272-.756h1.075c-.153.976-1.127 1.645-2.373 1.645-1.603 0-2.599-1.047-2.599-2.728 0-1.685 1.001-2.779 2.55-2.779h.002zM68.416.214v7.37h-1.1v-.913h-.02a1.89 1.89 0 01-1.756.97c-1.378 0-2.315-1.083-2.315-2.742 0-1.661.937-2.744 2.304-2.744a1.87 1.87 0 011.73.95h.02V.213h1.137zM44.884.938V2.21h1.049v.873h-1.049v2.963c0 .46.21.675.671.675.124-.002.249-.011.372-.026v.869a3.138 3.138 0 01-.628.05c-1.116 0-1.551-.408-1.551-1.45v-3.08h-.801V2.21h.801V.938h1.136zM78.088 2.15c1.215 0 1.912.76 1.912 1.991v3.443h-1.137V4.356c0-.807-.382-1.256-1.178-1.256-.37-.01-.727.138-.977.405s-.37.625-.329.985v3.095h-1.13V2.21h1.078v.914h.026a1.77 1.77 0 011.735-.975zm-22.957.005c.13 0 .26.014.387.042v1.031a1.635 1.635 0 00-.508-.067 1.155 1.155 0 00-.88.354c-.228.237-.336.56-.299.882v3.188h-1.13V2.21h1.078v.914h.026a1.31 1.31 0 011.326-.97zM19.105.214l2.73 7.37h-1.242l-.691-1.992H17.02l-.692 1.992h-1.22l2.73-7.37h1.267zM72.97 5.156l-1.357.082c-.676.042-1.058.327-1.058.787 0 .47.398.777 1.005.777.356.023.706-.094.971-.326.266-.232.423-.558.439-.905v-.414zM49.153 3.054c-.917 0-1.461.69-1.461 1.844 0 1.164.544 1.844 1.46 1.844.917 0 1.462-.68 1.462-1.844 0-1.16-.545-1.844-1.461-1.844zm-24.045.041c-.864 0-1.446.73-1.446 1.803 0 1.083.582 1.808 1.446 1.808.88 0 1.457-.71 1.457-1.808 0-1.088-.577-1.803-1.457-1.803zm6.066 0c-.865 0-1.446.73-1.446 1.803 0 1.083.581 1.808 1.446 1.808.88 0 1.456-.71 1.456-1.808 0-1.088-.576-1.803-1.456-1.803zm34.664 0c-.88 0-1.456.71-1.456 1.803 0 1.103.577 1.808 1.456 1.808.87 0 1.451-.715 1.451-1.808 0-1.083-.581-1.803-1.45-1.803zM18.476 1.44h-.03l-1.128 3.233h2.284L18.476 1.44zm39.837 1.598a1.41 1.41 0 00-.993.397 1.342 1.342 0 00-.41.967h2.755c.02-.36-.114-.711-.37-.97a1.343 1.343 0 00-.982-.394zM8.343 0a2.96 2.96 0 01-.706 2.155 2.621 2.621 0 01-2.049.944c-.05-.758.21-1.504.725-2.075A3.166 3.166 0 018.343 0zm54.931.214l-.748 2.696h-.97l.618-2.696h1.1z" fill="#000"/></svg>