<svg width="21" height="20" viewBox="0 0 21 20" fill="none" xmlns="http://www.w3.org/2000/svg">
<path d="M8.17797 9.28999C7.98917 9.10169 7.73311 8.9959 7.46612 8.9959C7.19912 8.9959 6.94306 9.10169 6.75427 9.28999C6.56548 9.4783 6.45941 9.73369 6.45941 9.99999C6.45941 10.2663 6.56548 10.5217 6.75427 10.71L9.76208 13.71C9.85576 13.8027 9.96687 13.876 10.089 13.9258C10.2112 13.9755 10.342 14.0008 10.4739 14C10.6112 13.9957 10.7461 13.9632 10.8703 13.9047C10.9944 13.8463 11.1052 13.763 11.1958 13.66L18.214 5.65999C18.3761 5.45932 18.4542 5.204 18.4321 4.94728C18.4101 4.69055 18.2895 4.45223 18.0956 4.282C17.9016 4.11178 17.6493 4.02279 17.3912 4.0336C17.1331 4.0444 16.8891 4.15416 16.7101 4.33999L10.4739 11.54L8.17797 9.28999Z" fill="white"/>
<path d="M19.4974 9C19.2315 9 18.9765 9.10536 18.7884 9.29289C18.6004 9.48043 18.4948 9.73478 18.4948 10C18.4948 12.1217 17.6497 14.1566 16.1455 15.6569C14.6413 17.1571 12.6012 18 10.474 18C8.88993 17.9993 7.34159 17.5308 6.02417 16.6535C4.70674 15.7763 3.67924 14.5297 3.07121 13.0708C2.46319 11.6119 2.30188 10.0061 2.60762 8.45589C2.91336 6.90569 3.67246 5.48048 4.7892 4.36C5.53183 3.60938 6.4171 3.01404 7.39322 2.60881C8.36933 2.20358 9.41667 1.99661 10.474 2C11.1151 2.004 11.7538 2.07777 12.3789 2.22C12.5097 2.26035 12.6474 2.27356 12.7835 2.2588C12.9197 2.24404 13.0513 2.20163 13.1704 2.13418C13.2894 2.06673 13.3934 1.97567 13.4758 1.86662C13.5582 1.75757 13.6174 1.63284 13.6496 1.50011C13.6818 1.36739 13.6865 1.22948 13.6632 1.0949C13.64 0.960317 13.5894 0.831909 13.5144 0.717592C13.4395 0.603274 13.342 0.505471 13.2277 0.430211C13.1134 0.354952 12.985 0.303831 12.8501 0.28C12.0713 0.0972427 11.2741 0.00330743 10.474 0C8.49315 0.0102635 6.55978 0.605521 4.91783 1.71065C3.27587 2.81578 1.99892 4.38126 1.24812 6.20953C0.497316 8.0378 0.306311 10.0469 0.699207 11.9834C1.0921 13.9198 2.05129 15.6968 3.45573 17.09C5.31726 18.9475 7.84077 19.9939 10.474 20C13.133 20 15.6832 18.9464 17.5634 17.0711C19.4437 15.1957 20.5 12.6522 20.5 10C20.5 9.73478 20.3944 9.48043 20.2063 9.29289C20.0183 9.10536 19.7633 9 19.4974 9Z" fill="white"/>
</svg>
