<svg width="70" height="18" fill="none" xmlns="http://www.w3.org/2000/svg"><path d="M.3.77c-.215.26-.32.59-.296.924v14.61c-.023.337.09.67.316.925l.047.053 8.307-8.184V8.9L.347.723.3.769z" fill="url(#paint0_linear_118_730)"/><path d="M11.43 11.826L8.674 9.098V8.9l2.756-2.728.06.04 3.3 1.836c.942.522.942 1.38 0 1.909l-3.286 1.836-.074.033z" fill="url(#paint1_linear_118_730)"/><path d="M11.51 11.793L8.675 9 .3 17.23c.391.343.976.362 1.39.047l9.82-5.483z" fill="url(#paint2_linear_118_730)"/><path d="M11.51 6.212L1.69.73A1.097 1.097 0 00.3.77L8.674 9l2.837-2.788z" fill="url(#paint3_linear_118_730)"/><path opacity=".2" d="M11.43 11.727l-9.74 5.45a1.13 1.13 0 01-1.343 0l-.047.046.047.053a1.13 1.13 0 001.344 0l9.82-5.483-.08-.066z" fill="#fff"/><path opacity=".12" d="M.3 17.137a1.306 1.306 0 01-.296-.931v.099c-.023.337.09.67.316.924l.047-.046-.067-.046zm14.49-7.28l-3.36 1.87.06.066 3.3-1.843c.397-.165.67-.53.713-.95-.085.38-.35.7-.712.858z" fill="#fff"/><path opacity=".25" d="M1.69.822l13.1 7.319c.364.158.628.477.713.858a1.159 1.159 0 00-.712-.95L1.69.728C.757.202.004.638.004 1.695v.099C.004.736.757.3 1.69.822z" fill="#fff"/><path fill-rule="evenodd" clip-rule="evenodd" d="M22.82 13.064c.641 0 1.165.192 1.556.578.39.385.585.89.585 1.498s-.195 1.113-.585 1.497c-.39.387-.915.58-1.556.58h-1.318v-4.153h1.318zm5.26 0v.626h-1.863v1.142h1.68v.616h-1.68v1.141h1.863v.627h-2.522v-4.152h2.522zm10.378 0v3.525h1.771v.627H37.8v-4.152h.658zm2.869 0v4.152h-.66v-4.152h.66zm1.55 0l1.9 2.988-.017-.568v-2.42h.66v4.152h-.653l-1.992-3.14.017.569v2.571h-.66v-4.152h.744zm-13.437 0l1.9 2.988-.017-.568v-2.42h.659v4.152h-.652l-1.992-3.14.016.569v2.571h-.659v-4.152h.745zm6.396 0l1.593 4.152H36.7l-.394-1.09h-1.624l-.4 1.09h-.729l1.593-4.152h.688zm-13.016.626h-.659v2.9h.659c.409 0 .733-.101.985-.3l.09-.08c.261-.252.394-.603.394-1.07 0-.463-.132-.814-.394-1.067-.262-.254-.615-.383-1.075-.383zm12.672.237l-.584 1.585h1.168l-.584-1.585zm-14.71-.863v1.402h-.614v-1.402h.613zM41.473 3.79c.596 0 1.069.26 1.316.549h.038v-.4h1.041v4.409c0 1.813-1.089 2.558-2.376 2.558a2.38 2.38 0 01-2.215-1.451l.956-.39c.17.399.588.873 1.259.873.823 0 1.335-.502 1.335-1.441v-.353h-.038c-.246.297-.72.557-1.316.557-1.25 0-2.395-1.07-2.395-2.446 0-1.386 1.146-2.465 2.395-2.465zm24.709.145l1.304 3.13h.038l1.256-3.13H70l-3.014 6.806h-1.144l1.115-2.433-1.956-4.373h1.182zM48.61 3.789c1.297 0 1.931 1.014 2.14 1.563l.113.279-3.342 1.358c.256.493.654.744 1.212.744.558 0 .947-.27 1.23-.679l.852.558A2.495 2.495 0 0148.733 8.7c-1.42 0-2.48-1.079-2.48-2.455 0-1.46 1.07-2.456 2.357-2.456zM24.131 1.073a3.73 3.73 0 012.66 1.052l-.747.734a2.729 2.729 0 00-1.913-.744 2.759 2.759 0 00-2.782 2.772 2.759 2.759 0 002.782 2.771c1.013 0 1.59-.4 1.96-.763.302-.297.501-.725.577-1.31H24.13V4.542h3.57c.037.186.056.409.056.651 0 .78-.217 1.748-.918 2.437-.68.697-1.553 1.069-2.707 1.069-2.14 0-3.937-1.711-3.937-3.813 0-2.103 1.798-3.814 3.937-3.814zm11.981 2.716c1.382 0 2.507 1.032 2.507 2.456 0 1.413-1.125 2.455-2.507 2.455-1.382 0-2.508-1.042-2.508-2.455 0-1.424 1.126-2.456 2.508-2.456zm-5.472 0c1.382 0 2.507 1.032 2.507 2.456 0 1.413-1.125 2.455-2.507 2.455-1.382 0-2.508-1.042-2.508-2.455 0-1.424 1.126-2.456 2.508-2.456zm32.056-.013c1.257 0 2.23.715 2.23 1.997V8.54h-1.059v-.558h-.037c-.255.381-.661.706-1.399.706-.964 0-1.823-.622-1.823-1.588 0-1.059 1.068-1.625 2.116-1.625.52 0 .945.167 1.143.278V5.68c-.009-.594-.585-.928-1.152-.928-.406 0-.794.13-1.002.53l-.973-.4c.34-.762 1.162-1.105 1.956-1.105zm-2.693-2.442V8.55h-1.096V1.334h1.096zm-14.28 0V8.55h-1.097V1.333h1.097zm10.17 0c1.215 0 2.41.865 2.41 2.241 0 1.377-1.195 2.242-2.41 2.242h-1.53V8.55h-1.097V1.334h2.627zM41.569 4.757c-.758 0-1.391.632-1.391 1.497 0 .855.634 1.479 1.391 1.479.747 0 1.334-.624 1.334-1.479 0-.865-.587-1.497-1.334-1.497zm-10.929 0c-.757 0-1.41.604-1.41 1.488 0 .874.652 1.488 1.41 1.488.757 0 1.41-.614 1.41-1.488 0-.884-.653-1.488-1.41-1.488zm5.471 0c-.756 0-1.41.604-1.41 1.488 0 .874.654 1.488 1.411 1.488s1.41-.614 1.41-1.488c0-.884-.653-1.488-1.41-1.488zm26.755 1.59c-.538 0-1.163.214-1.163.772 0 .436.502.613.86.613a1.32 1.32 0 001.304-1.142c-.292-.14-.519-.242-1.001-.242zM48.648 4.739c-.557 0-1.334.484-1.305 1.432l2.233-.911c-.123-.307-.492-.52-.928-.52zm7.273-2.4h-1.56v2.474h1.56c.82 0 1.285-.678 1.285-1.237a1.26 1.26 0 00-1.285-1.236z" fill="#fff"/><defs><linearGradient id="paint0_linear_118_730" x1="5.291" y1="1.542" x2="-1.718" y2="8.674" gradientUnits="userSpaceOnUse"><stop stop-color="#00A0FF"/><stop offset=".01" stop-color="#00A1FF"/><stop offset=".26" stop-color="#00BEFF"/><stop offset=".51" stop-color="#00D2FF"/><stop offset=".76" stop-color="#00DFFF"/><stop offset="1" stop-color="#00E3FF"/></linearGradient><linearGradient id="paint1_linear_118_730" x1="16.021" y1="8.999" x2="-.238" y2="8.999" gradientUnits="userSpaceOnUse"><stop stop-color="#FFE000"/><stop offset=".41" stop-color="#FFBD00"/><stop offset=".78" stop-color="orange"/><stop offset="1" stop-color="#FF9C00"/></linearGradient><linearGradient id="paint2_linear_118_730" x1="9.972" y1="11.624" x2="-2.02" y2="23.82" gradientUnits="userSpaceOnUse"><stop stop-color="#FF3A44"/><stop offset="1" stop-color="#C31162"/></linearGradient><linearGradient id="paint3_linear_118_730" x1="-1.811" y1="-.512" x2="3.541" y2="4.933" gradientUnits="userSpaceOnUse"><stop stop-color="#32A071"/><stop offset=".07" stop-color="#2DA771"/><stop offset=".48" stop-color="#15CF74"/><stop offset=".8" stop-color="#06E775"/><stop offset="1" stop-color="#00F076"/></linearGradient></defs></svg>