<svg aria-hidden="true" style="position: absolute; width: 0; height: 0; overflow: hidden;" version="1.1" xmlns="http://www.w3.org/2000/svg" xmlns:xlink="http://www.w3.org/TR/xlink11/">
<defs>
<symbol id="icon-apple" viewBox="0 0 29 32">
<path fill="#939db8" style="fill: var(--color1, #939db8)" d="M24.137 16.927c0-2.643 1.307-4.571 3.843-6.071-1.461-1.928-3.613-2.928-6.457-3.143-2.767-0.214-5.765 1.428-6.841 1.428-1.153 0-3.767-1.357-5.842-1.357-4.305 0.071-8.84 3.143-8.84 9.499 0 1.857 0.307 3.785 1.076 5.785 0.999 2.643 4.535 9.071 8.225 8.928 1.922 0 3.305-1.286 5.842-1.286 2.46 0 3.69 1.286 5.842 1.286 3.767 0 6.995-5.857 7.918-8.499-4.997-2.214-4.766-6.428-4.766-6.571zM19.833 5.214c2.075-2.286 1.845-4.428 1.845-5.214-1.845 0.143-3.997 1.214-5.227 2.5-1.384 1.428-2.152 3.214-1.999 5.143 1.999 0.143 3.843-0.786 5.381-2.428z"></path>
</symbol>
<symbol id="icon-binance" viewBox="0 0 159 32">
<path fill="#fff" style="fill: var(--color2, #fff)" d="M9.69 13.177l6.153-6.088 6.155 6.093 3.578-3.544-9.734-9.637-9.734 9.635 3.581 3.542z"></path>
<path fill="#fff" style="fill: var(--color2, #fff)" d="M0 15.681l3.579-3.543 3.579 3.543-3.579 3.543-3.579-3.543z"></path>
<path fill="#fff" style="fill: var(--color2, #fff)" d="M9.69 18.184l6.153 6.091 6.155-6.093 3.581 3.539-0.003 0.003-9.734 9.637-9.739-9.637 3.586-3.539z"></path>
<path fill="#fff" style="fill: var(--color2, #fff)" d="M24.521 15.681l3.579-3.543 3.579 3.543-3.579 3.543-3.579-3.543z"></path>
<path fill="#fff" style="fill: var(--color2, #fff)" d="M19.474 15.68l-3.631-3.596-3.636 3.596 0.005 0.007 3.631 3.591 3.631-3.599z"></path>
<path fill="#fff" style="fill: var(--color2, #fff)" d="M37.265 7.598h7.787c1.932 0 3.393 0.495 4.384 1.486 0.373 0.366 0.668 0.803 0.865 1.285s0.294 0.999 0.283 1.519v0.047c0.007 0.426-0.053 0.85-0.178 1.258-0.111 0.351-0.272 0.685-0.478 0.991-0.192 0.289-0.425 0.549-0.691 0.773-0.26 0.222-0.545 0.413-0.848 0.57 0.876 0.302 1.664 0.812 2.294 1.486 0.557 0.628 0.836 1.494 0.836 2.601v0.047c0.016 0.691-0.136 1.376-0.443 1.996-0.297 0.572-0.733 1.062-1.269 1.427-0.605 0.402-1.279 0.691-1.989 0.855-0.843 0.198-1.708 0.294-2.575 0.285h-7.98v-16.625zM44.271 14.32c0.674 0.032 1.344-0.111 1.944-0.416 0.234-0.135 0.425-0.333 0.552-0.57s0.183-0.505 0.164-0.772v-0.047c0.012-0.247-0.038-0.492-0.147-0.714s-0.273-0.413-0.476-0.556c-0.415-0.292-1.015-0.438-1.799-0.438h-3.643v3.515h3.406zM45.254 21.020c0.671 0.037 1.339-0.115 1.927-0.438 0.229-0.145 0.414-0.349 0.537-0.59s0.177-0.509 0.159-0.778v-0.047c0.009-0.255-0.045-0.509-0.158-0.739s-0.281-0.428-0.49-0.579c-0.43-0.33-1.126-0.495-2.087-0.495h-4.276v3.666h4.389z"></path>
<path fill="#fff" style="fill: var(--color2, #fff)" d="M56.159 7.598h3.696v16.63h-3.696v-16.63z"></path>
<path fill="#fff" style="fill: var(--color2, #fff)" d="M65.448 7.598h3.408l7.877 10.234v-10.234h3.648v16.63h-3.145l-8.135-10.571v10.571h-3.653v-16.63z"></path>
<path fill="#fff" style="fill: var(--color2, #fff)" d="M91.571 7.481h3.403l7.199 16.749h-3.859l-1.536-3.73h-7.104l-1.536 3.73h-3.768l7.201-16.749zM95.46 17.27l-2.237-5.395-2.227 5.395h4.464z"></path>
<path fill="#fff" style="fill: var(--color2, #fff)" d="M106.169 7.598h3.408l7.872 10.234v-10.234h3.648v16.63h-3.145l-8.135-10.571v10.571h-3.648v-16.63z"></path>
<path fill="#fff" style="fill: var(--color2, #fff)" d="M134.398 24.521c-1.179 0.010-2.346-0.216-3.434-0.664-1.023-0.419-1.952-1.036-2.732-1.815s-1.392-1.705-1.804-2.723c-0.435-1.065-0.654-2.203-0.648-3.351v-0.047c-0.020-2.263 0.86-4.443 2.45-6.071 0.782-0.795 1.718-1.425 2.753-1.853 1.124-0.461 2.333-0.691 3.55-0.676 0.72-0.005 1.44 0.059 2.147 0.191 0.605 0.113 1.198 0.288 1.767 0.523 0.516 0.215 1.007 0.486 1.463 0.807 0.446 0.314 0.864 0.663 1.252 1.045l-2.349 2.685c-0.601-0.548-1.274-1.012-2.003-1.379-0.714-0.338-1.499-0.508-2.292-0.495-0.66-0.007-1.313 0.125-1.916 0.387s-1.145 0.649-1.587 1.133c-0.438 0.484-0.78 1.044-1.011 1.652-0.241 0.643-0.363 1.323-0.358 2.009v0.047c-0.003 0.684 0.119 1.364 0.358 2.006 0.228 0.61 0.566 1.174 1.001 1.662 0.437 0.491 0.977 0.883 1.581 1.15s1.26 0.402 1.921 0.396c0.843 0.026 1.679-0.153 2.435-0.523 0.72-0.388 1.386-0.868 1.98-1.427l2.351 2.353c-0.414 0.446-0.864 0.86-1.343 1.238-0.471 0.368-0.981 0.683-1.524 0.939-0.578 0.269-1.185 0.468-1.811 0.592-0.724 0.144-1.46 0.213-2.197 0.208z"></path>
<path fill="#fff" style="fill: var(--color2, #fff)" d="M145.636 7.598h12.644v3.255h-9.008v3.373h7.932v3.255h-7.919v3.492h9.121v3.255h-12.761l-0.008-16.63z"></path>
</symbol>
<symbol id="icon-bitmex" viewBox="0 0 202 32">
<path fill="#fff" style="fill: var(--color2, #fff)" d="M17.13 0.595h18.825c-0.011 0.242-0.097 0.476-0.247 0.67-0.637 1.064-1.211 2.171-1.837 3.235-0.886 1.528-1.714 3.083-2.614 4.605-0.57 1.095-1.214 2.156-1.823 3.232-3.658 0-7.316 0-10.974 0-0.191 0-0.381 0.009-0.572 0.020-0.159 0.409-0.424 0.768-0.637 1.152-0.279 0.44-0.505 0.91-0.781 1.351-0.292 0.592-0.695 1.123-0.988 1.714-0.605 1-1.171 2.016-1.764 3.027-0.618 1.034-1.223 2.082-1.813 3.145-0.25 0.377-0.48 0.765-0.69 1.165-1.238 2.097-2.436 4.212-3.675 6.308-0.105 0.225-0.244 0.434-0.411 0.62-2.119-0.014-4.238 0-6.357 0-0.261 0.005-0.52 0.040-0.773 0.105 0-0.571 0.392-1.028 0.656-1.507 0.319-0.644 0.744-1.241 1.064-1.886 2.54-4.423 5.052-8.862 7.583-13.288 0.574-0.962 1.066-1.943 1.643-2.886 0.72-1.241 1.391-2.509 2.141-3.736 0.239-0.513 0.561-0.983 0.824-1.484 0.934-1.618 1.85-3.245 2.78-4.862 0.11-0.253 0.258-0.488 0.438-0.699z"></path>
<path fill="#fff" style="fill: var(--color2, #fff)" d="M38.944 7.109c1.254-2.133 2.465-4.288 3.736-6.412h6.8c0.099 0.005 0.197 0.020 0.293 0.045-0.226 0.333-0.416 0.687-0.615 1.034-1.64 2.865-3.275 5.732-4.905 8.6-0.685 1.168-1.322 2.362-2.017 3.524l-0.069 0.023-0.013 0.146c-3.197 5.583-6.383 11.171-9.559 16.762-6.242 0.006-12.485 0.006-18.727 0 0.355-0.723 0.776-1.413 1.171-2.116 1.778-3.183 3.602-6.337 5.355-9.52 3.835-0.006 7.671-0.006 11.506 0 2.369-4.017 4.687-8.065 7.039-12.088h0.006z"></path>
<path fill="#fff" style="fill: var(--color2, #fff)" d="M109.118 0.615v30.584h5.444v-21.507l9.931 14.165 9.85-14.501v21.843h5.604v-30.584h-6.027l-9.387 14.118-9.492-14.118h-5.922z"></path>
<path fill="#fff" style="fill: var(--color2, #fff)" d="M83.655 8.502h3.557v22.954h-3.557v-22.954z"></path>
<path fill="#fff" style="fill: var(--color2, #fff)" d="M83.351 0h4.169v3.851h-4.169v-3.851z"></path>
<path fill="#fff" style="fill: var(--color2, #fff)" d="M94.010 1.927h3.717v6.577h7.329v3.206h-7.329v13.636c-0.006 0.525 0.119 1.044 0.365 1.512 0.629 1.163 2.339 2.544 6.964 0.931v2.972c0 0-4.222 2.326-8.045 0.208 0 0-1.899-0.785-2.697-3.434-0.207-0.71-0.309-1.445-0.303-2.182v-13.693l-3.134 0.051v-3.206h3.159l-0.025-6.577z"></path>
<path fill="#fff" style="fill: var(--color2, #fff)" d="M145.68 0.615v30.79h23.631v-4.963h-17.868v-8.169h15.745v-4.885h-15.772v-7.779h17.711v-4.994h-23.446z"></path>
<path fill="#fff" style="fill: var(--color2, #fff)" d="M171.531 0.615h6.731l7.727 10.81 7.668-10.81h6.73l-10.993 15.016 11.678 15.748h-7.088l-7.967-11.502-8.352 11.528h-6.731l11.511-15.638-10.913-15.152z"></path>
<path fill="#fff" style="fill: var(--color2, #fff)" d="M72.764 15.43c0 0 5.205-1.912 4.886-7.418 0 0-0.043-5.295-6.167-6.929-1.018-0.266-2.068-0.397-3.123-0.391h-14.687l0.040 30.584h15.812c0 0 9.253-0.194 9.904-8.22 0 0 0.663-5.61-6.666-7.626zM57.47 3.849h9.374c7.354-0.025 7.142 5.016 7.142 5.016 0.11 5.751-6.639 5.634-6.639 5.634h-9.878v-10.65zM68.941 28.043h-11.471v-10.649h10.967c7.354-0.026 7.142 5.014 7.142 5.014 0.11 5.751-6.639 5.634-6.639 5.634z"></path>
</symbol>
<symbol id="icon-close" viewBox="0 0 32 32">
<path fill="#FF1313"  d="M18.932 16.026l12.46-12.46c0.811-0.811 0.811-2.121 0-2.932s-2.121-0.81-2.932 0l-12.46 12.461-12.46-12.461c-0.811-0.81-2.121-0.81-2.932 0s-0.811 2.121 0 2.932l12.46 12.46-12.46 12.461c-0.811 0.811-0.811 2.121 0 2.932 0.404 0.404 0.935 0.607 1.466 0.607s1.061-0.203 1.466-0.607l12.46-12.461 12.46 12.461c0.404 0.404 0.935 0.607 1.466 0.607s1.061-0.203 1.466-0.607c0.811-0.811 0.811-2.121 0-2.932l-12.46-12.461z"></path>
</symbol>
<symbol id="icon-cryptocom" viewBox="0 0 160 32">
<path fill="#fff" style="fill: var(--color2, #fff)" d="M13.824 0l13.824 7.989v15.979l-13.824 7.989-13.824-7.989v-15.979l13.824-7.989zM1.204 8.686v14.587l12.62 7.293 12.62-7.293v-14.587l-12.62-7.294-12.62 7.294z"></path>
<path fill="#fff" style="fill: var(--color2, #fff)" d="M41.884 23.064c-3.498 0-6.068-2.733-6.068-6.102s2.597-6.182 6.094-6.182c2.226 0 3.603 0.823 4.69 2.017l-1.669 1.804c-0.821-0.876-1.696-1.459-3.047-1.459-1.961 0-3.392 1.698-3.392 3.768 0 2.123 1.457 3.821 3.524 3.821 1.272 0 2.199-0.61 3.047-1.459l1.616 1.618c-1.166 1.247-2.517 2.176-4.796 2.176z"></path>
<path fill="#fff" style="fill: var(--color2, #fff)" d="M51.794 23.062h-2.703v-12.258h2.703v2.865c0.742-1.751 2.093-2.972 4.16-2.865v2.865h-0.159c-2.358 0-4.001 1.539-4.001 4.67v4.723z"></path>
<path fill="#fff" style="fill: var(--color2, #fff)" d="M70.079 10.751l-5.962 15.601h-2.729l1.298-3.29-5.114-12.311h2.888l3.471 9.101 3.338-9.101h2.809z"></path>
<path fill="#fff" style="fill: var(--color2, #fff)" d="M78.025 13.112c-1.828 0-3.418 1.486-3.418 3.794s1.616 3.794 3.418 3.794c1.855 0 3.365-1.459 3.365-3.794s-1.537-3.794-3.365-3.794zM78.635 23.036c-1.934 0-3.153-0.982-3.975-2.070v5.386h-2.702v-15.601h2.702v2.202c0.874-1.221 2.093-2.202 3.975-2.202 2.782 0 5.485 2.202 5.485 6.129s-2.676 6.156-5.485 6.156z"></path>
<path fill="#fff" style="fill: var(--color2, #fff)" d="M90.028 13.325v5.784c0 1.035 0.53 1.459 1.457 1.459h1.060v2.414h-1.855c-1.961 0-3.365-0.875-3.365-3.449v-6.209h-1.484v-2.308h1.484v-3.237h2.703v3.237h2.517v2.308h-2.517z"></path>
<path fill="#fff" style="fill: var(--color2, #fff)" d="M101.051 13.114c-2.173 0-3.551 1.698-3.551 3.768 0 2.096 1.484 3.821 3.577 3.821 2.173 0 3.551-1.698 3.551-3.768 0.053-2.096-1.457-3.821-3.577-3.821zM101.051 23.064c-3.577 0-6.227-2.733-6.227-6.102 0-3.396 2.676-6.182 6.28-6.182s6.253 2.733 6.253 6.129c0 3.343-2.65 6.156-6.306 6.156z"></path>
<path fill="#fff" style="fill: var(--color2, #fff)" d="M133.138 13.114c-2.173 0-3.551 1.698-3.551 3.768 0 2.096 1.484 3.821 3.578 3.821 2.173 0 3.55-1.698 3.55-3.768 0.026-2.096-1.457-3.821-3.577-3.821zM133.138 23.064c-3.576 0-6.227-2.733-6.227-6.102 0-3.396 2.676-6.182 6.281-6.182 3.603 0 6.253 2.733 6.253 6.129 0 3.343-2.677 6.156-6.307 6.156z"></path>
<path fill="#fff" style="fill: var(--color2, #fff)" d="M155.452 10.751c2.57 0 4.134 1.619 4.134 4.511v7.774h-2.703v-6.952c0-1.884-0.874-2.866-2.383-2.866-1.458 0-2.518 1.035-2.518 2.919v6.925h-2.701v-6.978c0-1.831-0.902-2.866-2.386-2.866s-2.518 1.114-2.518 2.945v6.899h-2.701v-12.285h2.701v2.017c0.77-1.035 1.777-2.017 3.578-2.017 1.695 0 2.861 0.822 3.498 2.070 0.98-1.274 2.225-2.096 4-2.096z"></path>
<path fill="#fff" style="fill: var(--color2, #fff)" d="M112.314 20.567v1.38l-0.079 0.133-1.192 0.663h-0.16l-1.165-0.663-0.079-0.133v-1.38l0.079-0.133 1.165-0.663h0.16l1.192 0.663 0.079 0.133z"></path>
<path fill="#fff" style="fill: var(--color2, #fff)" d="M120.498 23.037c-3.498-0.080-6.015-2.866-5.962-6.235s2.702-6.129 6.227-6.050c2.226 0.053 3.604 0.902 4.663 2.123l-1.695 1.778c-0.796-0.876-1.67-1.512-3.021-1.539-1.961-0.027-3.417 1.618-3.445 3.715-0.053 2.123 1.378 3.847 3.445 3.874 1.272 0.027 2.226-0.557 3.074-1.406l1.589 1.645c-1.192 1.247-2.57 2.149-4.875 2.096z"></path>
<path fill="#fff" style="fill: var(--color2, #fff)" d="M19.045 25.295h-1.881l-2.252-2.070v-1.061l2.332-2.229v-3.529l3.047-1.99 3.471 2.627-4.716 8.252zM11.255 19.723l0.344-3.317-1.139-2.972h6.73l-1.113 2.972 0.318 3.317h-5.14zM12.792 23.226l-2.252 2.096h-1.908l-4.743-8.278 3.498-2.6 3.074 1.963v3.529l2.332 2.229v1.061zM8.606 7.306h10.413l1.245 5.307h-12.877l1.219-5.307z"></path>
</symbol>
<symbol id="icon-facebook" viewBox="0 0 32 32">
<path fill="#939db8" style="fill: var(--color1, #939db8)" d="M18.478 32v-14.596h4.897l0.735-5.69h-5.632v-3.632c0-1.647 0.455-2.769 2.82-2.769l3.010-0.001v-5.089c-0.521-0.068-2.308-0.223-4.388-0.223-4.343 0-7.317 2.651-7.317 7.519v4.196h-4.912v5.69h4.912v14.596h5.874z"></path>
</symbol>
<symbol id="icon-google-play" viewBox="0 0 28 32">
<path fill="#939db8" style="fill: var(--color1, #939db8)" d="M0.55 0.491c-0.349 0.387-0.55 0.982-0.55 1.755v27.504c0 0.773 0.201 1.368 0.563 1.741l0.095 0.082 14.958-15.411v-0.346l-14.971-15.408-0.095 0.082z"></path>
<path fill="#939db8" style="fill: var(--color1, #939db8)" d="M20.591 21.319l-4.989-5.142v-0.36l4.991-5.142 0.108 0.069 5.903 3.456c1.69 0.982 1.69 2.599 0 3.594l-5.903 3.456c-0.002 0-0.109 0.069-0.109 0.069z"></path>
<path fill="#939db8" style="fill: var(--color1, #939db8)" d="M20.699 21.25l-5.097-5.253-15.052 15.508c0.55 0.609 1.475 0.677 2.509 0.082l17.64-10.338z"></path>
<path fill="#939db8" style="fill: var(--color1, #939db8)" d="M20.699 10.746l-17.64-10.324c-1.033-0.609-1.959-0.526-2.509 0.082l15.051 15.493 5.098-5.251z"></path>
<path fill="#939db8" style="fill: var(--color1, #939db8)" opacity="0.2" d="M20.591 21.139l-17.519 10.255c-0.979 0.58-1.852 0.54-2.415 0.014l-0.095 0.097 0.095 0.082c0.563 0.524 1.436 0.566 2.415-0.013l17.64-10.324-0.121-0.111z"></path>
<path fill="#939db8" style="fill: var(--color1, #939db8)" opacity="0.12" d="M26.602 17.614l-6.024 3.525 0.108 0.111 5.903-3.456c0.845-0.498 1.261-1.146 1.261-1.797-0.054 0.595-0.483 1.161-1.248 1.617z"></path>
<path fill="#939db8" style="fill: var(--color1, #939db8)" opacity="0.25" d="M3.059 0.602l23.543 13.78c0.765 0.442 1.194 1.022 1.261 1.617 0-0.649-0.416-1.299-1.261-1.797l-23.543-13.78c-1.69-0.995-3.059-0.166-3.059 1.824v0.18c0-1.99 1.369-2.805 3.059-1.824z"></path>
</symbol>
<symbol id="icon-instagram" viewBox="0 0 32 32">
<path fill="#939db8" style="fill: var(--color1, #939db8)" d="M31.969 9.408c-0.075-1.7-0.35-2.869-0.744-3.882-0.406-1.075-1.031-2.038-1.85-2.838-0.8-0.813-1.769-1.444-2.832-1.844-1.019-0.394-2.182-0.669-3.882-0.744-1.713-0.081-2.257-0.1-6.601-0.1s-4.888 0.019-6.595 0.094c-1.7 0.075-2.869 0.35-3.882 0.744-1.075 0.406-2.038 1.031-2.838 1.85-0.813 0.8-1.444 1.769-1.844 2.832-0.394 1.019-0.669 2.182-0.744 3.882-0.081 1.713-0.1 2.257-0.1 6.601s0.019 4.888 0.094 6.595c0.075 1.7 0.35 2.869 0.744 3.882 0.406 1.075 1.038 2.038 1.85 2.838 0.8 0.813 1.769 1.444 2.832 1.844 1.019 0.394 2.182 0.669 3.882 0.744 1.706 0.075 2.251 0.094 6.595 0.094s4.888-0.019 6.595-0.094c1.7-0.075 2.869-0.35 3.882-0.744 2.151-0.831 3.851-2.532 4.682-4.682 0.394-1.019 0.669-2.182 0.744-3.882 0.075-1.707 0.094-2.25 0.094-6.595s-0.006-4.888-0.081-6.595zM29.087 22.473c-0.069 1.563-0.331 2.407-0.55 2.969-0.538 1.394-1.644 2.5-3.038 3.038-0.563 0.219-1.413 0.481-2.969 0.55-1.688 0.075-2.194 0.094-6.464 0.094s-4.782-0.019-6.464-0.094c-1.563-0.069-2.407-0.331-2.969-0.55-0.694-0.256-1.325-0.663-1.838-1.194-0.531-0.519-0.938-1.144-1.194-1.838-0.219-0.563-0.481-1.413-0.55-2.969-0.075-1.688-0.094-2.194-0.094-6.464s0.019-4.782 0.094-6.464c0.069-1.563 0.331-2.407 0.55-2.969 0.256-0.694 0.663-1.325 1.2-1.838 0.519-0.531 1.144-0.938 1.838-1.194 0.563-0.219 1.413-0.481 2.969-0.55 1.688-0.075 2.194-0.094 6.464-0.094 4.276 0 4.782 0.019 6.464 0.094 1.563 0.069 2.407 0.331 2.969 0.55 0.694 0.256 1.325 0.662 1.838 1.194 0.531 0.519 0.938 1.144 1.194 1.838 0.219 0.563 0.481 1.413 0.55 2.969 0.075 1.688 0.094 2.194 0.094 6.464s-0.019 4.77-0.094 6.458z"></path>
<path fill="#939db8" style="fill: var(--color1, #939db8)" d="M16.059 7.783c-4.538 0-8.22 3.682-8.22 8.22s3.682 8.22 8.22 8.22c4.539 0 8.22-3.682 8.22-8.22s-3.682-8.22-8.22-8.22zM16.059 21.335c-2.944 0-5.332-2.388-5.332-5.332s2.388-5.332 5.332-5.332c2.944 0 5.332 2.388 5.332 5.332s-2.388 5.332-5.332 5.332z"></path>
<path fill="#939db8" style="fill: var(--color1, #939db8)" d="M26.524 7.458c0 1.060-0.859 1.919-1.919 1.919s-1.919-0.859-1.919-1.919c0-1.060 0.859-1.919 1.919-1.919s1.919 0.859 1.919 1.919z"></path>
</symbol>
<symbol id="icon-kucoin" viewBox="0 0 85 32">
<path fill="#fff" style="fill: var(--color2, #fff)" d="M61.658 15.993c0-0.408 0-0.792-0.013-1.146-0.009-0.334-0.042-0.668-0.098-0.997-0.052-0.301-0.145-0.593-0.276-0.869-0.138-0.284-0.322-0.543-0.545-0.765-0.316-0.328-0.692-0.59-1.107-0.773-0.449-0.184-0.93-0.276-1.414-0.269-0.486-0.006-0.969 0.085-1.419 0.269-0.418 0.18-0.796 0.441-1.114 0.769-0.222 0.222-0.406 0.481-0.542 0.765-0.13 0.276-0.221 0.568-0.271 0.869-0.055 0.33-0.086 0.663-0.094 0.997-0.009 0.354-0.013 0.738-0.011 1.146s0 0.789 0.011 1.146c0.008 0.334 0.039 0.668 0.094 0.997 0.051 0.301 0.142 0.593 0.271 0.869 0.137 0.284 0.321 0.542 0.542 0.765 0.317 0.328 0.695 0.589 1.114 0.768 0.451 0.185 0.933 0.277 1.419 0.27 0.485 0.007 0.965-0.085 1.414-0.27 0.415-0.18 0.791-0.441 1.107-0.768 0.222-0.222 0.406-0.481 0.545-0.765 0.131-0.276 0.223-0.568 0.276-0.869 0.056-0.329 0.088-0.661 0.097-0.994 0.011-0.357 0.016-0.738 0.013-1.146l0.002 0.001zM59.833 15.993c0 0.452-0.006 0.829-0.022 1.128-0.009 0.246-0.033 0.491-0.073 0.734-0.027 0.162-0.076 0.319-0.145 0.468-0.056 0.12-0.13 0.23-0.218 0.328-0.136 0.158-0.305 0.283-0.494 0.367-0.213 0.092-0.443 0.139-0.674 0.138-0.233 0.001-0.464-0.046-0.678-0.138-0.194-0.082-0.367-0.208-0.507-0.367-0.089-0.097-0.162-0.208-0.218-0.328-0.067-0.149-0.113-0.306-0.138-0.468-0.038-0.243-0.063-0.488-0.073-0.734-0.013-0.299-0.019-0.675-0.019-1.128s0.006-0.829 0.019-1.129c0.010-0.246 0.034-0.491 0.073-0.734 0.025-0.162 0.071-0.319 0.138-0.468 0.055-0.12 0.129-0.231 0.218-0.328 0.14-0.159 0.313-0.284 0.507-0.367 0.214-0.093 0.445-0.14 0.678-0.138 0.231-0.002 0.461 0.045 0.674 0.138 0.189 0.084 0.358 0.209 0.494 0.367 0.088 0.098 0.161 0.209 0.218 0.328 0.069 0.148 0.117 0.306 0.145 0.468 0.040 0.243 0.064 0.488 0.073 0.734 0.016 0.299 0.022 0.676 0.022 1.129z"></path>
<path fill="#fff" style="fill: var(--color2, #fff)" d="M76.202 11.419c-0.001-0.089-0.072-0.161-0.16-0.162h-1.506c-0.088 0-0.159 0.073-0.16 0.162v5.637l-3.673-5.753c-0.025-0.039-0.046-0.046-0.1-0.046h-1.397c-0.088 0.001-0.159 0.073-0.16 0.162v9.146c0.001 0.089 0.073 0.161 0.16 0.162h1.505c0.088-0 0.159-0.072 0.159-0.162v-5.651l3.673 5.767c0.026 0.039 0.046 0.046 0.101 0.046h1.396c0.088-0 0.159-0.072 0.16-0.161l0.002-9.146z"></path>
<path fill="#fff" style="fill: var(--color2, #fff)" d="M66.108 11.419c0-0.089-0.071-0.162-0.16-0.162h-1.505c-0.088 0-0.159 0.073-0.16 0.162v9.146c0.001 0.089 0.072 0.162 0.16 0.162h1.505c0.089-0 0.16-0.073 0.16-0.162v-9.146z"></path>
<path fill="#fff" style="fill: var(--color2, #fff)" d="M48.098 15.993c0-0.455 0.005-0.834 0.018-1.135 0.009-0.246 0.033-0.491 0.072-0.734 0.139-0.815 0.755-1.295 1.541-1.295 0.513 0.004 0.978 0.197 1.275 0.634 0.134 0.204 0.233 0.431 0.29 0.669 0.004 0.025 0.027 0.043 0.052 0.040h1.771c0.025 0 0.035-0.018 0.030-0.043-0.193-1.11-0.778-2.108-1.811-2.602-0.508-0.238-1.062-0.357-1.621-0.349-0.997 0-1.837 0.346-2.52 1.038-0.39 0.385-0.656 0.88-0.763 1.421-0.104 0.532-0.157 1.317-0.158 2.354s0.052 1.822 0.158 2.354c0.107 0.541 0.372 1.038 0.761 1.424 0.682 0.691 1.522 1.037 2.52 1.037 0.559 0.009 1.113-0.11 1.621-0.348 1.033-0.494 1.617-1.491 1.811-2.602 0.004-0.026-0.005-0.043-0.030-0.043h-1.772c-0.025-0.003-0.048 0.015-0.052 0.040-0.057 0.238-0.155 0.465-0.29 0.669-0.297 0.44-0.762 0.63-1.275 0.634-0.786 0-1.402-0.48-1.541-1.295-0.039-0.243-0.064-0.488-0.072-0.734-0.010-0.303-0.015-0.683-0.015-1.136z"></path>
<path fill="#fff" style="fill: var(--color2, #fff)" d="M29.394 11.419c-0-0.089-0.072-0.162-0.16-0.162h-1.504c-0.088 0-0.16 0.073-0.16 0.162v9.146c0.001 0.089 0.072 0.161 0.16 0.162h1.504c0.088-0 0.159-0.072 0.16-0.162v-2.685l1.207-1.463 2.48 4.261c0.019 0.031 0.053 0.050 0.090 0.048h1.828c0.084 0 0.099-0.053 0.057-0.126l-3.247-5.578 2.979-3.621c0.060-0.073 0.035-0.143-0.059-0.143h-1.998c-0.024-0.001-0.048 0.010-0.062 0.029l-3.275 3.979v-3.849z"></path>
<path fill="#fff" style="fill: var(--color2, #fff)" d="M40.354 19.157c-0.847 0-1.614-0.794-1.614-1.742v-5.996c-0-0.089-0.072-0.162-0.16-0.162h-1.504c-0.088 0-0.16 0.073-0.16 0.162v5.973c0 2.088 1.541 3.415 3.439 3.415s3.439-1.327 3.439-3.415v-5.973c-0.001-0.089-0.072-0.161-0.16-0.162h-1.505c-0.088 0.001-0.159 0.073-0.159 0.162v5.996c0 0.948-0.769 1.742-1.614 1.742z"></path>
<path fill="#fff" style="fill: var(--color2, #fff)" d="M12.447 15.993l4.67 4.733 2.948-2.987c0.527-0.481 1.334-0.46 1.835 0.049s0.523 1.325 0.048 1.86l-3.89 3.943c-0.523 0.521-1.361 0.521-1.883 0l-5.613-5.689v3.381c0 0.746-0.597 1.351-1.333 1.351s-1.333-0.605-1.333-1.351v-10.583c0-0.746 0.597-1.351 1.333-1.351s1.334 0.605 1.334 1.351v3.381l5.612-5.687c0.522-0.521 1.361-0.521 1.883 0l3.893 3.942c0.475 0.534 0.454 1.351-0.048 1.86s-1.308 0.53-1.835 0.049l-2.948-2.987-4.673 4.737zM17.119 14.64c-0.54-0-1.027 0.329-1.234 0.835s-0.093 1.087 0.289 1.474c0.382 0.387 0.956 0.503 1.455 0.294s0.824-0.703 0.824-1.25c0-0.359-0.14-0.703-0.39-0.957s-0.59-0.396-0.944-0.397v0.001z"></path>
</symbol>
<symbol id="icon-menu" viewBox="0 0 32 32">
<path fill="#fff"  d="M32 23.11h-32v3.556h32v-3.556z"></path>
<path fill="#fff"  d="M32 14.222h-32v3.556h32v-3.556z"></path>
<path fill="#fff"  d="M32 5.333h-32v3.556h32v-3.556z"></path>
</symbol>
<symbol id="icon-play-now" viewBox="0 0 32 32">
<path fill="#fff" style="fill: var(--color2, #fff)" d="M16 0c-4.244 0-8.313 1.686-11.314 4.686s-4.686 7.070-4.686 11.314 1.686 8.313 4.686 11.314c3 3.001 7.070 4.686 11.314 4.686s8.313-1.686 11.314-4.686c3.001-3 4.686-7.070 4.686-11.314s-1.686-8.313-4.686-11.314c-3-3.001-7.070-4.686-11.314-4.686zM12 22.666v-13.333l12 6.861-12 6.472z"></path>
</symbol>
<symbol id="icon-telegram" viewBox="0 0 32 32">
<path fill="#939db8" style="fill: var(--color1, #939db8)" d="M12.556 20.241l-0.529 7.445c0.757 0 1.085-0.325 1.479-0.716l3.551-3.393 7.357 5.388c1.349 0.752 2.3 0.356 2.664-1.241l4.829-22.629 0.001-0.001c0.428-1.995-0.721-2.775-2.036-2.285l-28.387 10.868c-1.937 0.752-1.908 1.832-0.329 2.321l7.257 2.257 16.857-10.548c0.793-0.525 1.515-0.235 0.921 0.291l-13.636 12.244z"></path>
</symbol>
<symbol id="icon-twitter" viewBox="0 0 37 32">
<path fill="#939db8" style="fill: var(--color1, #939db8)" d="M36.923 4.552c-1.373 0.602-2.836 1.002-4.362 1.195 1.569-0.937 2.767-2.409 3.33-4.184-1.463 0.872-3.079 1.488-4.8 1.832-1.389-1.479-3.369-2.395-5.529-2.395-4.191 0-7.565 3.402-7.565 7.572 0 0.6 0.051 1.177 0.175 1.726-6.293-0.307-11.861-3.323-15.602-7.918-0.653 1.133-1.036 2.43-1.036 3.826 0 2.622 1.35 4.945 3.362 6.291-1.216-0.023-2.409-0.376-3.42-0.932 0 0.023 0 0.053 0 0.083 0 3.678 2.624 6.734 6.065 7.438-0.616 0.169-1.288 0.249-1.985 0.249-0.485 0-0.974-0.028-1.433-0.129 0.981 2.998 3.764 5.201 7.073 5.273-2.575 2.015-5.845 3.228-9.385 3.228-0.621 0-1.216-0.028-1.812-0.104 3.353 2.162 7.327 3.397 11.612 3.397 13.929 0 21.545-11.538 21.545-21.54 0-0.335-0.012-0.658-0.028-0.978 1.502-1.066 2.765-2.398 3.794-3.93z"></path>
</symbol>
<symbol id="icon-visa" viewBox="0 0 32 32">
<path fill="#939db8" style="fill: var(--color1, #939db8)" d="M12.15 11.015l-4.189 9.995h-2.734l-2.060-7.976c-0.127-0.492-0.235-0.671-0.615-0.88-0.623-0.337-1.647-0.653-2.552-0.849l0.063-0.29h4.399c0.561 0 1.065 0.374 1.192 1.019l1.089 5.785 2.69-6.804 2.717-0zM22.859 17.745c0.012-2.637-3.648-2.78-3.622-3.96 0.007-0.36 0.348-0.741 1.096-0.837 0.371-0.049 1.392-0.086 2.55 0.446l0.454-2.119c-0.623-0.226-1.423-0.443-2.418-0.443-2.556 0-4.355 1.359-4.37 3.304-0.017 1.438 1.284 2.241 2.264 2.72 1.007 0.49 1.344 0.803 1.34 1.243-0.007 0.671-0.804 0.964-1.547 0.977-1.3 0.020-2.054-0.351-2.657-0.632l-0.468 2.191c0.603 0.277 1.72 0.517 2.876 0.532 2.716-0 4.493-1.345 4.502-3.423zM29.608 21.010h2.392l-2.087-9.995h-2.208c-0.496 0-0.914 0.289-1.101 0.733l-3.878 9.263h2.714l0.539-1.493h3.318l0.311 1.493zM26.723 17.469l1.362-3.753 0.783 3.753h-2.145zM15.845 11.015l-2.139 9.995h-2.586l2.14-9.995h2.586z"></path>
</symbol>
<symbol id="icon-windows" viewBox="0 0 32 32">
<path fill="#939db8" style="fill: var(--color1, #939db8)" d="M0 4.429v10.857h13.071v-12.643l-13.071 1.786zM0 27.643l13.071 1.786v-12.5h-13.071v10.714zM14.5 29.643l17.5 2.357v-15.071h-17.5v12.714zM14.5 2.429v12.857h17.5v-15.286l-17.5 2.429z"></path>
</symbol>
</defs>
</svg>
